FFmpeg version SVN-r25716, Copyright (c) 2000-2010 the FFmpeg developers  built on Nov 10 2010 12:23:18 with gcc 4.1.2 20080704 (Red Hat 4.1.2-48)  configuration: --enable-libmp3lame --enable-shared --disable-mmx --arch=x86_64  libavutil     50.33. 0 / 50.33. 0  libavcore      0.12. 1 /  0.12. 1  libavcodec    52.94. 4 / 52.94. 4  libavformat   52.84. 0 / 52.84. 0  libavdevice   52. 2. 2 / 52. 2. 2  libavfilter    1.59. 0 /  1.59. 0  libswscale     0.12. 0 /  0.12. 0Seems stream 0 codec frame rate differs from container frame rate: 600.00 (600/1) -> 8.00 (8/1)Input #0, mov,mp4,m4a,3gp,3g2,mj2, from '/RAID10/data/converted_video_files/31915.mov':  Duration: 00:00:28.25, start: 0.000000, bitrate: 1655 kb/s    Stream #0.0(eng): Video: rpza, rgb555le, 223x223, 1654 kb/s, 8 fps, 8 tbr, 600 tbn, 600 tbc[buffer @ 0x18173640] w:223 h:223 pixfmt:rgb555le[ffsink @ 0x18178380] auto-inserting filter 'auto-inserted scaler 0' between the filter 'src' and the filter 'out'[scale @ 0x18178670] w:223 h:223 fmt:rgb555le -> w:223 h:223 fmt:yuv420p flags:0x4Output #0, flv, to '/RAID10/data/converted_video_files/31915.flv':  Metadata:    encoder         : Lavf52.84.0    Stream #0.0(eng): Video: flv, yuv420p, 223x223, q=2-31, 600 kb/s, 1k tbn, 24 tbcStream mapping:  Stream #0.0 -> #0.0Press [q] to stop encodingframe=  140 fps=  0 q=3.5 size=     871kB time=17.42 bitrate= 409.6kbits/s    frame=  226 fps=  0 q=3.5 Lsize=    1517kB time=28.17 bitrate= 441.1kbits/s    video:1513kB audio:0kB global headers:0kB muxing overhead 0.246949%